<svg version="1.1" xmlns="http://www.w3.org/2000/svg" xmlns:xlink="http://www.w3.org/1999/xlink" x="0px" y="0px" width="280.89px" height="30.027px" viewBox="0 0 280.89 30.027" enable-background="new 0 0 280.89 30.027" xml:space="preserve" fill="#FAFAFA">
<path d="M104.941,15.205c0.146,4.872,0.292,9.743,0.439,14.668
	c-0.186,0.015-0.329,0.047-0.467,0.036c-0.727-0.062-1.453-0.128-2.179-0.203c-1.375-0.141-2.75-0.287-4.126-0.435
	c-0.121-0.013-0.239-0.052-0.394-0.087c-0.041-0.336-0.09-0.657-0.117-0.979c-0.123-1.529-0.237-3.059-0.357-4.588
	c-0.127-1.605-0.267-3.208-0.388-4.813c-0.182-2.408-0.351-4.816-0.526-7.225c-0.128-1.756-0.255-3.512-0.39-5.267
	c-0.129-1.681-0.271-3.359-0.4-5.04c-0.015-0.193,0.017-0.39,0.027-0.61c0.533-0.106,1.018-0.185,1.524-0.149
	c1.982,0.137,3.967,0.248,5.949,0.394c1.303,0.096,2.604,0.232,3.906,0.354c0.776,0.074,1.552,0.153,2.327,0.231
	c0.15,0.015,0.305,0.014,0.448,0.054c0.32,0.09,0.61,0.223,0.74,0.575c0.121,0.328,0.298,0.638,0.397,0.971
	c0.75,2.531,1.485,5.065,2.227,7.598c0.056,0.191,0.122,0.38,0.205,0.636c0.116-0.113,0.215-0.178,0.27-0.269
	c1.003-1.657,1.994-3.32,3.003-4.973c0.175-0.286,0.178-0.552,0.113-0.86c-0.175-0.836-0.334-1.676-0.485-2.517
	c-0.089-0.495-0.11-0.995-0.093-1.497c0.449-0.336,0.951-0.395,1.441-0.469c0.372-0.057,0.75-0.082,1.127-0.103
	c2.159-0.122,4.319-0.238,6.479-0.356c0.904-0.05,1.809-0.1,2.712-0.151c0.382-0.022,0.744,0.048,1.109,0.167
	c0.479,0.156,0.777,0.479,0.893,0.939c0.158,0.631,0.316,1.267,0.246,1.934c-0.042,0.4-0.05,0.803-0.068,1.205
	c-0.077,1.659-0.148,3.317-0.231,4.975c-0.021,0.426-0.085,0.851-0.122,1.276c-0.052,0.601-0.128,1.201-0.027,1.806
	c0.025,0.146,0.003,0.301-0.004,0.452c-0.139,2.764-0.278,5.527-0.419,8.291c-0.104,2.01-0.231,4.019-0.304,6.029
	c-0.03,0.859-0.342,1.555-0.907,2.153c-0.752,0.13-7.755,0.53-8.404,0.476c-0.04-0.252-0.097-0.517-0.121-0.784
	c-0.121-1.354-0.232-2.707-0.349-4.06c-0.184-2.13-0.372-4.259-0.556-6.389c-0.073-0.852-0.138-1.705-0.212-2.557
	c-0.04-0.447-0.091-0.894-0.136-1.328c-0.59-0.082-0.626-0.078-0.788,0.346c-0.602,1.573-1.194,3.149-1.788,4.726
	c-1.117,2.964-2.231,5.928-3.35,8.893c-0.087,0.232-0.191,0.459-0.312,0.746c-0.148-0.118-0.285-0.183-0.355-0.291
	c-0.135-0.21-0.234-0.444-0.346-0.67c-2.115-4.228-4.228-8.456-6.343-12.683c-0.107-0.214-0.231-0.419-0.349-0.629
	C105.057,15.168,104.999,15.187,104.941,15.205z"/>
<path d="M27.542,5.678c-0.579,2.418-1.127,4.714-1.684,7.036
	c-0.244,0.09-0.474,0.182-0.709,0.26c-1.529,0.5-3.059,0.997-4.587,1.498c-0.164,0.054-0.321,0.125-0.562,0.22
	c0.218,0.113,0.358,0.201,0.509,0.26c1.547,0.599,3.096,1.192,4.644,1.79c0.232,0.089,0.461,0.188,0.722,0.295
	c0.261,2.31,0.434,4.612,0.672,6.923c-0.192,0.191-0.368,0.37-0.548,0.543c-1.322,1.276-2.652,2.542-3.962,3.831
	c-0.325,0.319-0.667,0.471-1.123,0.516c-1.552,0.15-3.099,0.349-4.647,0.527c-1.05,0.121-2.104,0.21-3.148,0.366
	c-1.326,0.198-2.658,0.182-3.99,0.201c-2.214,0.032-4.428,0.053-6.643,0.076c-0.272,0.003-0.55,0.032-0.848-0.056
	c-0.027-0.208-0.064-0.402-0.076-0.597c-0.073-1.281-0.147-2.562-0.21-3.844c-0.123-2.488-0.231-4.977-0.361-7.464
	c-0.121-2.337-0.259-4.673-0.395-7.009C0.48,9.041,0.36,7.032,0.238,5.022c-0.07-1.13-0.138-2.26-0.227-3.389
	c-0.03-0.369-0.025-0.702,0.273-0.968C0.604,0.381,0.904,0.074,1.394,0.13c0.249,0.029,0.503,0.009,0.754,0.017
	c2.465,0.081,4.929,0.17,7.395,0.242c1.131,0.033,2.263,0.039,3.396,0.051c2.742,0.03,5.485,0.068,8.228,0.077
	c0.648,0.002,1.152,0.202,1.617,0.655c1.423,1.388,2.873,2.748,4.314,4.118C27.242,5.428,27.398,5.554,27.542,5.678z M12.359,26.035
	c0.738-0.172,1.316-0.402,1.898-0.612c0.583-0.21,1.197-0.344,1.777-0.674c0.013-0.863,0.028-1.714,0.037-2.564
	c0.009-0.854,0.02-1.707,0.018-2.561c-0.002-0.848,0.056-1.697-0.016-2.516c-0.696-0.414-2.88-1.176-3.456-1.2
	C12.454,19.237,12.506,22.571,12.359,26.035z M16.163,12.375c0.134-0.671,0.078-1.326,0.118-1.973
	c0.043-0.678,0.08-1.356,0.113-2.035c0.032-0.653,0.053-1.307,0.083-1.961c0.03-0.67,0.137-1.34,0.033-2.047
	c-1.109-0.3-2.199-0.597-3.29-0.886c-0.117-0.031-0.245-0.017-0.426-0.026c-0.059,2.862-0.14,5.7-0.156,8.54
	c-0.001,0.144,0.027,0.288,0.046,0.472c1.036,0.082,2.037,0.004,3.036-0.001C15.862,12.457,16.006,12.406,16.163,12.375z"/>
<path d="M147.908,29.702c-0.009-0.318-0.028-0.565-0.02-0.812
	c0.116-3.394,0.233-6.789,0.353-10.184c0.059-1.659,0.123-3.318,0.185-4.978c0.129-3.495,0.256-6.989,0.388-10.484
	c0.024-0.653,0.056-1.307,0.104-1.959c0.043-0.59,0.444-0.961,1.072-1.015c0.212-0.018,0.428-0.01,0.642-0.014
	c2.968-0.057,5.938-0.091,8.905-0.18c1.261-0.037,2.511,0.036,3.766,0.101c1.495,0.077,2.992,0.146,4.487,0.223
	c0.773,0.04,1.547,0.088,2.344,0.133c0.243,0.279,0.479,0.55,0.715,0.821c0.625,0.722,1.231,1.458,1.88,2.161
	c0.359,0.388,0.51,0.787,0.438,1.304c-0.137,0.972-0.225,1.95-0.334,2.926c-0.097,0.875-0.194,1.751-0.295,2.626
	c-0.014,0.124-0.045,0.245-0.075,0.402c-0.37,0.132-0.742,0.266-1.116,0.397c-0.35,0.124-0.7,0.248-1.052,0.367
	c-0.376,0.129-0.756,0.251-1.133,0.381c-0.351,0.12-0.704,0.237-1.05,0.371c-0.355,0.138-0.762,0.178-1.073,0.438
	c0.164,0.269,0.436,0.26,0.649,0.319c1.205,0.333,2.416,0.646,3.625,0.964c1.008,0.265,1,0.264,1.067,1.208
	c0.173,2.434,0.354,4.868,0.531,7.303c0.011,0.149,0.018,0.3,0.028,0.476c-0.121,0.123-0.236,0.259-0.371,0.375
	c-1.562,1.338-3.137,2.665-4.686,4.018c-0.317,0.276-0.662,0.403-1.068,0.446c-1.594,0.167-3.188,0.336-4.782,0.505
	c-1.037,0.111-2.071,0.233-3.108,0.334c-0.503,0.049-1.012,0.052-1.516,0.093c-0.639,0.051-1.278,0.114-1.916,0.182
	c-1.62,0.174-3.239,0.356-4.859,0.532c-0.718,0.077-1.436,0.149-2.154,0.217C148.324,29.714,148.165,29.702,147.908,29.702z
	 M158.505,24.45c0.211-0.033,0.37-0.041,0.517-0.085c0.939-0.283,1.875-0.573,2.812-0.862c0.051-0.015,0.103-0.027,0.153-0.042
	c0.283-0.086,0.45-0.255,0.453-0.549c0.001-0.15,0.014-0.301,0.023-0.451c0.081-1.403,0.166-2.805,0.243-4.208
	c0.039-0.701,0.071-1.403,0.089-2.105c0.008-0.315-0.068-0.411-0.371-0.496c-0.893-0.253-1.788-0.5-2.686-0.737
	c-0.3-0.079-0.477,0.029-0.515,0.309c-0.058,0.422-0.099,0.848-0.136,1.272c-0.207,2.35-0.413,4.699-0.614,7.05
	C158.451,23.816,158.385,24.09,158.505,24.45z M160.133,3.425c-0.033,0.187-0.072,0.331-0.084,0.477
	c-0.158,1.903-0.314,3.806-0.468,5.709c-0.038,0.477-0.074,0.953-0.093,1.43c-0.016,0.405,0.208,0.558,0.604,0.414
	c0.92-0.337,1.828-0.706,2.756-1.022c0.439-0.15,0.669-0.379,0.639-0.823c-0.007-0.1,0.013-0.201,0.016-0.301
	c0.038-1.332,0.076-2.663,0.108-3.994c0.004-0.146-0.033-0.292-0.052-0.454c-0.995-0.468-1.969-0.934-2.951-1.382
	C160.479,3.42,160.311,3.442,160.133,3.425z"/>
<path d="M54.12,27.313c-1.019,0.281-2.035,0.562-3.052,0.842
	c-2.107,0.58-4.215,1.162-6.323,1.736c-0.163,0.044-0.346,0.075-0.509,0.049c-2.532-0.402-5.062-0.82-7.594-1.216
	c-0.32-0.05-0.56-0.172-0.783-0.394c-1.268-1.258-2.534-2.518-3.823-3.754c-0.297-0.285-0.421-0.606-0.478-0.987
	c-0.202-1.343-0.409-2.684-0.614-4.026c-0.288-1.889-0.575-3.778-0.864-5.667c-0.034-0.225-0.042-0.435,0.041-0.663
	c0.729-2.008,1.443-4.021,2.159-6.035c0.32-0.899,0.654-1.795,0.943-2.705c0.167-0.53,0.508-0.852,0.999-1.048
	c0.209-0.083,0.426-0.151,0.642-0.214c3.302-0.973,6.605-1.941,9.907-2.918c0.395-0.117,0.759-0.136,1.167-0.003
	c2.652,0.862,5.313,1.696,7.969,2.549c0.357,0.114,0.693,0.289,1.045,0.422c0.46,0.174,0.716,0.523,0.896,0.96
	c0.4,0.977,0.814,1.948,1.222,2.922c0.67,1.6,1.34,3.2,2.01,4.8c0.078,0.186,0.144,0.376,0.229,0.558
	c0.213,0.458,0.187,0.906,0.063,1.393c-0.639,2.535-1.255,5.075-1.867,7.616c-0.096,0.398-0.239,0.759-0.457,1.105
	C56.08,24.167,55.125,25.705,54.12,27.313z M47.189,24.965c0.015-0.298,0.027-0.624,0.047-0.949c0.118-1.983,0.232-3.967,0.359-5.95
	c0.111-1.732,0.27-3.461,0.351-5.194c0.097-2.061,0.135-4.124,0.194-6.186c0.006-0.222-0.015-0.445-0.023-0.695
	c-0.992-0.661-1.971-1.313-2.975-1.982c-0.519,0.257-1.014,0.497-1.503,0.747c-0.509,0.261-1.043,0.478-1.488,0.775
	c-0.078,1.141-0.053,18.779,0.031,19.428c0.373,0.274,0.765,0.589,1.183,0.864c0.433,0.285,0.768,0.725,1.27,0.865
	C45.39,26.289,46.767,25.362,47.189,24.965z"/>
<path d="M68.349,27.29c-1.007-1.609-2.003-3.209-3.009-4.804
	c-0.165-0.261-0.263-0.539-0.335-0.833c-0.637-2.613-1.271-5.226-1.922-7.836c-0.109-0.435-0.101-0.835,0.075-1.248
	c0.393-0.925,0.77-1.857,1.158-2.785c0.717-1.717,1.479-3.417,2.139-5.154c0.349-0.919,0.973-1.415,1.856-1.693
	c1.821-0.573,3.641-1.154,5.461-1.731c0.958-0.304,1.919-0.6,2.872-0.916c0.297-0.098,0.562-0.119,0.874-0.026
	c3.444,1.025,6.893,2.032,10.34,3.045c0.145,0.042,0.288,0.09,0.427,0.148c0.488,0.204,0.804,0.538,0.984,1.062
	c0.898,2.615,1.827,5.219,2.745,7.828c0.025,0.071,0.042,0.146,0.076,0.213c0.342,0.651,0.338,1.319,0.218,2.037
	c-0.401,2.405-0.751,4.819-1.121,7.229c-0.095,0.622-0.191,1.243-0.278,1.865c-0.048,0.335-0.182,0.605-0.432,0.848
	c-1.3,1.262-2.588,2.536-3.874,3.811c-0.204,0.202-0.422,0.321-0.716,0.366c-1.49,0.226-2.978,0.478-4.467,0.717
	c-1.042,0.168-2.086,0.325-3.126,0.505c-0.183,0.032-0.339,0.021-0.512-0.027c-3.003-0.828-6.008-1.651-9.012-2.478
	C68.626,27.395,68.486,27.337,68.349,27.29z M80.346,24.921c0.1-2.518,0.057-18.749-0.053-19.433
	c-0.966-0.493-1.944-0.997-2.912-1.448c-0.879,0.467-2.635,1.667-3.036,2.072c0,0.263-0.007,0.539,0.001,0.815
	c0.051,1.71,0.095,3.42,0.163,5.129c0.047,1.156,0.123,2.311,0.196,3.465c0.128,2.008,0.268,4.015,0.396,6.024
	c0.074,1.153,0.136,2.307,0.202,3.437c0.549,0.498,2.062,1.48,2.652,1.714C78.732,26.119,79.536,25.522,80.346,24.921z"/>
<path d="M255.926,0.857c0.719-0.101,6.804-0.016,8.033,0.101
	c0.043,0.176,0.114,0.364,0.135,0.558c0.192,1.803,0.375,3.606,0.561,5.41c0.064,0.626,0.128,1.253,0.199,1.879
	c0.011,0.096,0.054,0.19,0.077,0.271c0.688,0.171,3.124,0.309,3.906,0.216c0.014-0.128,0.051-0.271,0.039-0.409
	c-0.074-0.904-0.151-1.807-0.242-2.709c-0.159-1.578-0.329-3.156-0.492-4.733c-0.034-0.329,0.047-0.472,0.374-0.59
	c0.178-0.064,0.375-0.102,0.567-0.119c1.088-0.097,2.177-0.195,3.268-0.271c2.182-0.152,4.363-0.291,6.545-0.434
	c0.196-0.013,0.393-0.033,0.588-0.025c0.528,0.021,0.94,0.392,0.966,0.86c0.008,0.151,0.003,0.302,0.005,0.453
	c0.042,3.372,0.074,6.744,0.128,10.116c0.095,5.938,0.203,11.876,0.304,17.814c0.003,0.197-0.013,0.394-0.021,0.589
	c-0.31,0.142-0.589,0.059-0.856,0.03c-0.892-0.097-1.78-0.21-2.67-0.318c-1.944-0.237-3.89-0.473-5.834-0.713
	c-0.188-0.023-0.373-0.073-0.61-0.12c-0.493-4.926-0.984-9.831-1.473-14.718c-0.456-0.238-0.912-0.23-1.35-0.297
	c-0.47-0.07-0.937-0.166-1.409-0.214c-0.427-0.042-0.86-0.204-1.354-0.045c0.479,4.976,0.954,9.91,1.435,14.892
	c-0.229,0.021-0.415,0.061-0.598,0.053c-1.486-0.063-2.971-0.135-4.456-0.205c-0.812-0.038-1.625-0.076-2.438-0.115
	c-0.195-0.009-0.395-0.005-0.584-0.043c-0.391-0.077-0.57-0.264-0.601-0.629c-0.11-1.33-0.21-2.661-0.317-3.99
	c-0.153-1.882-0.311-3.765-0.464-5.646c-0.131-1.606-0.255-3.212-0.386-4.819c-0.147-1.807-0.299-3.613-0.446-5.42
	c-0.138-1.706-0.271-3.414-0.406-5.12C256.011,1.896,255.97,1.397,255.926,0.857z"/>
<path d="M198.546,8.259c-1.794-0.445-3.531-0.958-5.281-1.426
	c-1.717-0.459-3.425-0.948-5.234-1.415c0.27,0.966,0.084,1.836,0.027,2.705c-0.083,1.255-0.192,2.509-0.287,3.764
	c-0.011,0.146-0.001,0.292-0.001,0.404c0.217,0.174,0.415,0.107,0.596,0.083c1.426-0.194,2.852-0.391,4.275-0.6
	c0.821-0.12,1.637-0.269,2.457-0.397c0.353-0.056,0.709-0.098,1.114,0.002c0.114,0.605-0.083,1.193-0.105,1.785
	c-0.022,0.627-0.108,1.253-0.174,1.879c-0.062,0.597-0.135,1.192-0.207,1.824c-0.957,0.089-1.855-0.11-2.76-0.146
	c-0.942-0.037-1.879-0.15-2.82-0.227c-0.908-0.074-1.816-0.145-2.718-0.216c-0.083,2.54-0.297,5.057-0.437,7.644
	c1.276-0.297,2.453-0.664,3.645-0.984c1.223-0.329,2.432-0.701,3.658-1.02c1.195-0.312,2.344-0.763,3.632-1.003
	c0.008,0.219,0.042,0.389,0.016,0.55c-0.229,1.418-0.469,2.834-0.706,4.252c-0.146,0.87-0.291,1.74-0.439,2.609
	c-0.043,0.246-0.101,0.489-0.146,0.713c-0.341,0.137-0.65,0.083-0.95,0.087c-3.055,0.041-6.109,0.104-9.164,0.102
	c-2.086-0.002-4.153,0.196-6.229,0.307c-1.162,0.062-2.322,0.139-3.541,0.213c-0.041-0.13-0.115-0.264-0.118-0.4
	c-0.011-0.452,0.001-0.904,0.008-1.357c0.116-8.226,0.232-16.452,0.349-24.678c0.01-0.679,0.026-1.358,0.045-2.038
	c0.005-0.171,0.034-0.341,0.051-0.509c0.321-0.151,0.632-0.122,0.93-0.133c1.443-0.057,2.885-0.113,4.329-0.154
	c4.135-0.12,8.271-0.23,12.407-0.349c0.777-0.022,1.553-0.066,2.33-0.092c0.416-0.014,0.833-0.02,1.249-0.011
	c0.302,0.006,0.602,0.053,0.869,0.205c-0.299,1.718-0.288,3.43-0.419,5.133c-0.064,0.853-0.111,1.708-0.17,2.561
	C198.619,8.021,198.582,8.112,198.546,8.259z"/>
<path d="M252.884,12.17c-0.978,0.116-1.841,0.225-2.707,0.318
	c-0.789,0.085-1.578,0.161-2.368,0.228c-0.718,0.061-0.954-0.086-1.09-0.729c-0.166-0.79-0.292-1.586-0.433-2.38
	c-0.065-0.372-0.134-0.744-0.188-1.118c-0.038-0.262-0.156-0.472-0.367-0.654c-1.017-0.878-2.031-1.76-3.038-2.648
	c-0.245-0.216-0.483-0.288-0.81-0.156c-0.952,0.383-1.91,0.754-2.871,1.116c-0.264,0.099-0.394,0.246-0.396,0.506
	c-0.003,0.377-0.025,0.754-0.029,1.131c-0.052,4.956-0.101,9.911-0.151,14.866c0,0.05,0,0.101,0,0.151
	c-0.013,0.75-0.006,0.8,0.86,1.046c0.492,0.141,1.018,0.185,1.53,0.261c0.567,0.085,1.14,0.139,1.704,0.238
	c0.261,0.046,0.489,0.018,0.711-0.09c0.819-0.402,1.636-0.811,2.483-1.231c0.299-1.09,0.599-2.186,0.901-3.281
	c0.101-0.365,0.196-0.732,0.318-1.092c0.093-0.275,0.243-0.355,0.562-0.294c0.32,0.061,0.65,0.122,0.941,0.249
	c1.382,0.605,2.763,1.214,4.122,1.862c0.635,0.303,0.818,0.583,0.564,1.308c-0.192,0.549-0.447,1.081-0.685,1.615
	c-0.734,1.653-1.469,3.305-2.212,4.954c-0.292,0.65-0.832,1.034-1.593,1.109c-1.768,0.177-3.537,0.359-5.309,0.488
	c-0.592,0.043-1.199-0.05-1.796-0.106c-1.279-0.122-2.555-0.269-3.834-0.388c-0.36-0.034-0.695-0.109-1.024-0.244
	c-2.048-0.839-4.101-1.67-6.151-2.504c-0.1-0.041-0.197-0.089-0.298-0.126c-0.254-0.092-0.375-0.265-0.422-0.51
	c-0.136-0.718-0.291-1.433-0.431-2.151c-0.703-3.587-1.401-7.175-2.106-10.762c-0.104-0.527-0.101-1.035,0.037-1.564
	c0.536-2.053,1.039-4.113,1.554-6.171c0.024-0.098,0.054-0.195,0.07-0.294c0.063-0.376,0.296-0.607,0.654-0.807
	c2.315-1.294,4.618-2.604,6.917-3.922c0.314-0.18,0.623-0.279,0.995-0.277c1.561,0.007,3.121,0.001,4.682-0.012
	c0.347-0.003,0.637,0.123,0.932,0.253c2.193,0.97,4.387,1.941,6.581,2.912c0.616,0.272,1.229,0.551,1.852,0.811
	c0.419,0.175,0.611,0.458,0.649,0.878c0.164,1.83,0.344,3.657,0.52,5.486C252.765,10.992,252.821,11.541,252.884,12.17z"/>
<path d="M209.946,0.107c0.237,0.039,0.438,0.056,0.627,0.105
	c2.777,0.725,5.554,1.453,8.33,2.182c0.137,0.036,0.27,0.083,0.404,0.127c0.557,0.181,0.83,0.499,0.947,1.043
	c0.812,3.779,1.674,7.55,2.517,11.324c0.903,4.045,1.805,8.091,2.704,12.138c0.114,0.518,0.216,1.039,0.313,1.56
	c0.027,0.147,0.027,0.3,0.021,0.45c-0.003,0.071-0.052,0.14-0.093,0.243c-0.164-0.009-0.343,0.015-0.492-0.032
	c-0.397-0.125-0.789-0.082-1.191-0.043c-1.913,0.187-3.825,0.372-5.74,0.54c-0.827,0.073-1.659,0.109-2.49,0.148
	c-0.221,0.01-0.445-0.033-0.673-0.051c-0.186-0.359-0.197-0.715-0.251-1.057c-0.242-1.544-0.467-3.09-0.698-4.636
	c-0.008-0.05-0.01-0.101-0.019-0.15c-0.077-0.457-0.161-0.527-0.708-0.594c-0.313-0.038-0.626-0.076-0.939-0.11
	c-1.453-0.159-2.906-0.318-4.36-0.472c-0.194-0.02-0.395-0.003-0.651-0.003c-0.151,1.166-0.212,2.315-0.298,3.463
	c-0.085,1.148-0.185,2.294-0.28,3.46c-0.199,0-0.351,0.032-0.477-0.005c-1.188-0.347-2.433-0.34-3.657-0.457
	c-0.656-0.063-1.314-0.114-1.971-0.175c-0.081-0.008-0.157-0.05-0.226-0.073c-0.141-0.248,0.023-0.454,0.094-0.662
	c0.958-2.845,1.901-5.693,2.894-8.529c1.447-4.133,2.912-8.26,4.416-12.377c0.253-0.692,0.422-1.336,0.18-2.046
	c-0.097-0.286-0.081-0.592,0.035-0.892c0.533-1.381,1.053-2.766,1.58-4.148C209.817,0.307,209.865,0.245,209.946,0.107z
	 M208.079,18.385c0.124,0.087,0.144,0.113,0.169,0.118c1.737,0.326,3.474,0.653,5.213,0.972c0.122,0.022,0.259-0.019,0.427-0.034
	c-0.065-0.219-0.104-0.391-0.166-0.555c-0.317-0.834-0.64-1.666-0.959-2.499c-0.577-1.499-1.147-2.999-1.735-4.495
	c-0.077-0.196-0.073-0.453-0.428-0.599c-0.036,0.056-0.091,0.115-0.115,0.182C209.648,13.766,208.868,16.072,208.079,18.385z"/>
</svg>
